<svg width="120" height="105" viewBox="0 0 120 105" fill="none" xmlns="http://www.w3.org/2000/svg">
<g id="Group">
<path id="Vector" d="M60 105L32.1081 77.1296L0 60.6018L5.18919 24.6296L0 0.161987L60 11.9907V105Z" fill="#61D8DE"/>
<path id="Vector_2" d="M60 104.838L87.8919 76.9675L120 60.6018L114.811 24.6296L120 0.161987L60 11.9907V104.838Z" fill="#4CC8C0"/>
<path id="Vector_3" d="M119.837 59.4676L74.7564 14.9074L119.837 0L114.973 25.2778L119.837 59.4676Z" fill="#36C1BF"/>
<path id="Vector_4" d="M0.323547 59.4676L45.5668 14.7454L0.323547 0L5.35057 25.2778L0.323547 59.4676Z" fill="#36C1BF"/>
<path id="Vector_5" d="M114.81 24.9537C113.999 25.1157 74.9182 15.2315 74.9182 15.2315L119.513 0.324097L114.81 24.9537Z" fill="#22ACA7"/>
<path id="Vector_6" d="M5.35175 25.1157C6.16256 25.2778 45.2436 15.3935 45.2436 15.3935L0.649048 0.486084L5.35175 25.1157Z" fill="#22ACA7"/>
<path id="Vector_7" d="M68.919 96.0879L60 90.0925L51.0811 96.0879L60 104.838L68.919 96.0879Z" fill="#B1DCE3"/>
</g>
</svg>
